# xmcd
#
# Track frame offsets: 
#        150
#        19519
#        38214
#        58249
#        76153
#        90941
#        109304
#        126129
#        143933
#        161828
#        176966
#        190742
#        203204
#        222002
#        238342
#        255887
#        272006
#        290589
#        308992
#        325823
#
# Disc length: 4589 seconds
#
# Revision: 0
# Processed by: cddbd v1.5.2PL0 Copyright (c) Steve Scherf et al.
# Submitted via: ExactAudioCopy v1.0b3
#
DISCID=2211eb14
DTITLE=Legende - Trilogija [Disk 2]
DYEAR=2012
DGENRE=Folk
TTITLE0=Ne veruj
TTITLE1=Uspomene
TTITLE2=Cetrdesete
TTITLE3=Kosovski bozuri
TTITLE4=Ne pitaj
TTITLE5=Tamburasi (Duet sa Halidom Beslicem)
TTITLE6=Slutnja
TTITLE7=Godinama
TTITLE8=Nocas
TTITLE9=Zbog tebe
TTITLE10=Ta oka dva
TTITLE11=Moja si
TTITLE12=Nemam snova
TTITLE13=Majci
TTITLE14=Uspavanka
TTITLE15=Nevernica
TTITLE16=Lastavice
TTITLE17=Dzanum zadje sunce
TTITLE18=Jos samo noc da pobedim
TTITLE19=Kako da te izbrisem
EXTD=
EXTT0=
EXTT1=
EXTT2=
EXTT3=
EXTT4=
EXTT5=
EXTT6=
EXTT7=
EXTT8=
EXTT9=
EXTT10=
EXTT11=
EXTT12=
EXTT13=
EXTT14=
EXTT15=
EXTT16=
EXTT17=
EXTT18=
EXTT19=
PLAYORDER=
